<svg width="24" height="24" version="1.1" id="colortool_svg__Layer_1_11629" xmlns="http://www.w3.org/2000/svg" x="0" y="0" viewBox="226.5 -2 586.1 658" xml:space="preserve" enable-background="new 226.5 -2.0 586.1 658.0">
  <style>[data-id="svg-loader_11533"] .colortool_svg__st5{fill:#cc253d}[data-id="svg-loader_11533"] .colortool_svg__st6{fill:none;stroke:#3f2522;stroke-width:6;stroke-linecap:round;stroke-linejoin:round;stroke-miterlimit:10}[data-id="svg-loader_11533"] .colortool_svg__st7{fill:#38beb3}[data-id="svg-loader_11533"] .colortool_svg__st8{opacity:.14;fill:#026060}[data-id="svg-loader_11533"] .colortool_svg__st12{fill:#3f2522}[data-id="svg-loader_11533"] .colortool_svg__st19{fill:none;stroke:#dd795b;stroke-width:6;stroke-linecap:round;stroke-linejoin:round;stroke-miterlimit:10}[data-id="svg-loader_11533"] .colortool_svg__st20{fill:#bdced9}[data-id="svg-loader_11533"] .colortool_svg__st21{opacity:.26;fill:#fff}[data-id="svg-loader_11533"] .colortool_svg__st22{fill:#acc1cc}[data-id="svg-loader_11533"] .colortool_svg__st24{opacity:.23;fill:#fff}[data-id="svg-loader_11533"] .colortool_svg__st28{fill:#94af4a}[data-id="svg-loader_11533"] .colortool_svg__st29{fill:#ec2731}[data-id="svg-loader_11533"] .colortool_svg__st35{opacity:5.000000e-02;fill:#026060}[data-id="svg-loader_11533"] .colortool_svg__st38{opacity:.21;fill:#ffbba6}[data-id="svg-loader_11533"] .colortool_svg__st39{fill:#9b4f45}[data-id="svg-loader_11533"] .colortool_svg__st42{opacity:.4;fill:none;stroke:#fff;stroke-width:6;stroke-linecap:round;stroke-linejoin:round;stroke-miterlimit:10}</style>
  <path id="colortool_svg__XMLID_66__11630" fill="#ff8603" d="M642.5 3h150v358.2h-150z"></path>
  <path id="colortool_svg__XMLID_184__11631" d="M762.5 60.5V111c0 8.3-6.7 15-15 15s-15-6.7-15-15V43c0-8.3-6.7-15-15-15s-15 6.7-15 15v68c0 8.3-6.7 15-15 15s-15-6.7-15-15V88c0-8.3-6.7-15-15-15s-15 6.7-15 15v261.2h150V60.5c0-8.3-6.7-15-15-15-8.2 0-15 6.7-15 15z" fill="#ed5f18"></path>
  <path id="colortool_svg__XMLID_161__11632" d="M762.5 72.5V123c0 8.3-6.7 15-15 15s-15-6.7-15-15V55c0-8.3-6.7-15-15-15s-15 6.7-15 15v68c0 8.3-6.7 15-15 15s-15-6.7-15-15v-23c0-8.3-6.7-15-15-15s-15 6.7-15 15v261.2h150V72.5c0-8.3-6.7-15-15-15-8.2 0-15 6.7-15 15z" fill="#ef2531"></path>
  <path id="colortool_svg__XMLID_176__11633" class="colortool_svg__st5" d="M762.5 168.3v71.1c0 8.3-6.7 15-15 15s-15-6.7-15-15v-36.8c0-8.3-6.7-15-15-15s-15 6.7-15 15v36.8c0 8.3-6.7 15-15 15s-15-6.7-15-15v-50.5c0-8.3-6.7-15-15-15s-15 6.7-15 15v164h150V168.3c0-8.3-6.7-15-15-15-8.2 0-15 6.7-15 15z"></path>
  <path id="colortool_svg__XMLID_155__11634" class="colortool_svg__st6" d="M762.5 72.5V123c0 8.3-6.7 15-15 15s-15-6.7-15-15V55c0-8.3-6.7-15-15-15s-15 6.7-15 15v68c0 8.3-6.7 15-15 15s-15-6.7-15-15v-23c0-8.3-6.7-15-15-15s-15 6.7-15 15v261.2h150V72.5c0-8.3-6.7-15-15-15-8.2 0-15 6.7-15 15z"></path>
  <path id="colortool_svg__XMLID_150__11635" class="colortool_svg__st7" d="M762.5 181.3v71.1c0 8.3-6.7 15-15 15s-15-6.7-15-15v-36.8c0-8.3-6.7-15-15-15s-15 6.7-15 15v36.8c0 8.3-6.7 15-15 15s-15-6.7-15-15v-50.5c0-8.3-6.7-15-15-15s-15 6.7-15 15v164h150V181.3c0-8.3-6.7-15-15-15-8.2 0-15 6.7-15 15z"></path>
  <path id="colortool_svg__XMLID_162__11636" class="colortool_svg__st8" d="M642.5 325h150v36.2h-150z"></path>
  <path id="colortool_svg__XMLID_160__11637" class="colortool_svg__st6" d="M762.5 181.3v71.1c0 8.3-6.7 15-15 15s-15-6.7-15-15v-36.8c0-8.3-6.7-15-15-15s-15 6.7-15 15v36.8c0 8.3-6.7 15-15 15s-15-6.7-15-15v-50.5c0-8.3-6.7-15-15-15s-15 6.7-15 15v164h150V181.3c0-8.3-6.7-15-15-15-8.2 0-15 6.7-15 15z"></path>
  <path id="colortool_svg__XMLID_148__11638" class="colortool_svg__st6" d="M642.5 3h150v358.2h-150z"></path>
  <path id="colortool_svg__XMLID_51__11639" d="M715.2 514.4v-21.7c0-14.5 11.8-26.3 26.3-26.3h77.4c14.5 0 26.3-11.8 26.3-26.3v-22.7c0-14.5-11.8-26.3-26.3-26.3h-23.7" fill="none" stroke="#3f2522" stroke-width="8" stroke-linecap="round" stroke-linejoin="round" stroke-miterlimit="10"></path>
  <path id="colortool_svg__XMLID_79__11640" d="M564.4 382.1L536.2 331c-.9-1.7-3.3-1.7-4.2 0l-28.1 51v9.2h60.5v-9.1z" fill="#f1e4e5"></path>
  <path id="colortool_svg__XMLID_102__11641" d="M536.3 331.1c-.9-1.7-3.3-1.7-4.2 0l-3.1 5.7 26.2 47.5v6.9h9.3v-9.1l-28.2-51z" fill="#ddd4d5"></path>
  <path id="colortool_svg__XMLID_27__11642" class="colortool_svg__st6" d="M564.4 382.1L536.2 331c-.9-1.7-3.3-1.7-4.2 0l-28.1 51v9.2h60.5v-9.1z"></path>
  <path id="colortool_svg__XMLID_50__11643" class="colortool_svg__st6" d="M545 346.9l-8.7-15.8c-.9-1.7-3.3-1.7-4.2 0l-8.7 15.8H545z"></path>
  <path id="colortool_svg__XMLID_80__11644" class="colortool_svg__st12" d="M545 346.9l-8.7-15.8c-.9-1.7-3.3-1.7-4.2 0l-8.7 15.8H545z"></path>
  <path id="colortool_svg__XMLID_16__11645" d="M292.3 642.2c-16.2 0-29.9-13.4-30.5-30.5l-5.5-141.5h72l-5.5 141.5c-.6 17.1-14.3 30.5-30.5 30.5z" fill="#6b352f"></path>
  <path id="colortool_svg__XMLID_72__11646" d="M262.5 617.3c7.8 0 14.1-6.5 13.7-14.3l-5-118.5c-.3-8-6.9-14.3-14.9-14.3l5.5 141.5c.1 1.9.3 3.8.7 5.6z" opacity=".48" fill="#a35d58"></path>
  <path id="colortool_svg__XMLID_110__11647" d="M328.3 470.2c-9 0-16.4 7.1-16.8 16.1L307 603.8c-.7 17.2-14.3 30.5-30.5 30.5-1.5 0-3.1-.1-4.6-.4 5.4 5.1 12.6 8.2 20.4 8.2 16.2 0 29.9-13.4 30.5-30.5l5.5-141.4z" fill="#602c29"></path>
  <defs>
    <filter id="colortool_svg__colortool_svg__colortool_svg__colortool_svg__colortool_svg__colortool_svg__colortool_svg__colortool_svg__Adobe_OpacityMaskFilter_11648" filterUnits="userSpaceOnUse" x="228.5" y="447.1" width="137.4" height="226">
      <feColorMatrix values="1 0 0 0 0 0 1 0 0 0 0 0 1 0 0 0 0 0 1 0"></feColorMatrix>
    </filter>
  </defs>
  <mask maskUnits="userSpaceOnUse" x="228.5" y="447.1" width="137.4" height="226" id="colortool_svg__XMLID_5__11649">
    <g id="colortool_svg__XMLID_48__11650" filter="url(#colortool_svg__colortool_svg__colortool_svg__colortool_svg__colortool_svg__colortool_svg__colortool_svg__colortool_svg__Adobe_OpacityMaskFilter_11648)">
      <path id="colortool_svg__XMLID_52__11651" d="M292.3 642.2c-16.2 0-29.9-13.4-30.5-30.5l-5.5-141.5h72l-5.5 141.5c-.6 17.1-14.3 30.5-30.5 30.5z" fill="#9f4b22"></path>
    </g>
  </mask>
  <g id="colortool_svg__XMLID_115__11652" opacity=".56" mask="url(#colortool_svg__XMLID_5__11649)">
    <path id="colortool_svg__XMLID_127__11653" class="colortool_svg__st19" d="M231.5 464.5c.1 11.6 47.1 8.3 54.8 29.5 7.6 20.9-33.2 38.8-46.2 92.5-6.3 25.9-3.7 50.1 2.2 52.3 7.5 2.8 12.9-36.6 38.2-40.1 15.6-2.2 28 9 43.2 28.2 23.1 29.2 24.8 43.8 30.8 43 7.7-1.1 17.7-61.9-9.5-82-16.1-11.9-35-3.5-45.3-16.3-9.8-12.2-2.1-29.9.2-35.8 1.6-3.9 12.3-23.3 29.4-36.2 5.9-4.4 10.1-3.9 13.7-8.7 5.5-7.4 6.8-20.3 0-29.5-9.2-12.5-28.9-11.6-37.5-4-8.5 7.5 6.1 15.3 0 18-10.6 4.7-20.6-28.2-41.8-25.2-15.1 2.2-32.3 7.2-32.2 14.3z"></path>
    <path id="colortool_svg__XMLID_126__11654" class="colortool_svg__st19" d="M239.2 495.8c10.2-8.1 21.2-10.7 27.8-6.4.8.5 4.4 3.1 5 7.2.7 5.2-4 9.7-8.5 14-5.2 5-12.8 12.4-22.5 22.5"></path>
    <path id="colortool_svg__XMLID_125__11655" class="colortool_svg__st19" d="M276.5 462.5c6.5 6.5 15.2 24.1 29.5 24.1 13.8 0 16.1-26.4 22.3-24.1 2.2.8 7.6 5.4 7.9 7.8.7 5.1-3.9 9.6-8.4 13.2 0 0-13.6 10.2-28.1 26.3-6.5 7.3-18 24.2-19.9 40-1.1 9.3-1.2 21.8 4.7 30.7 9.7 14.8 36.6 18.6 66 8.5"></path>
    <path id="colortool_svg__XMLID_95__11656" class="colortool_svg__st19" d="M342.3 514c-9-3.6-27.1 13.2-29.7 31-.3 2.3-2 13.8 4.3 18.3 6.8 4.9 19.5-.6 26-8 11.6-13.1 8.3-37.8-.6-41.3z"></path>
    <path id="colortool_svg__XMLID_98__11657" class="colortool_svg__st19" d="M253.3 586.3c-.4-1.3-5.2-19 3.9-28 1.2-1.2 7.2-6.5 10.8-.6 2.7 4.3 3.3 19.5-2.2 31.6-5 11.1-15.1 15.8-19.8 19"></path>
    <path id="colortool_svg__XMLID_103__11658" class="colortool_svg__st19" d="M264.3 651c-3.4-13.2 1.5-28.3 11.3-34.2 5.9-3.5 12.3-3.3 12.3-3.3 7 .3 11.9 4 14.5 6.1 0 0 14.8 11.7 14.2 35.8v.6c-.1 5.6-1.2 10.2-2.2 13.3"></path>
    <path id="colortool_svg__XMLID_107__11659" class="colortool_svg__st19" d="M286.8 648c-4.8-5.1-5.2-11.9-2.1-15.7 2.9-3.5 8.2-3.5 11.3-2.6 6.1 1.8 10.6 8.7 10.7 17.2"></path>
  </g>
  <path id="colortool_svg__XMLID_42__11660" class="colortool_svg__st20" d="M328.3 470.2h-72c.7-27.3 6.4-47.9 14.3-61.7h43.3c8 13.8 13.7 34.3 14.4 61.7z"></path>
  <path id="colortool_svg__XMLID_179__11661" class="colortool_svg__st21" d="M270.7 408.5c-7.9 13.8-13.6 34.3-14.3 61.7 7.2 0 13.3-5.5 13.9-12.7 1.9-21.1 7-37.4 13.6-48.9h-13.2z"></path>
  <path id="colortool_svg__XMLID_26__11662" class="colortool_svg__st22" d="M315.8 424.2h-30.9c-8.5 0-15.4-6.9-15.4-15.4v-.3h46.3v15.7z"></path>
  <path id="colortool_svg__XMLID_75__11663" class="colortool_svg__st22" d="M314 408.5h-17.1c7.9 13.8 13.6 34.3 14.3 61.7h17.1c-.7-27.4-6.4-47.9-14.3-61.7z"></path>
  <path id="colortool_svg__XMLID_7__11664" class="colortool_svg__st6" d="M328.3 470.2h-72c.7-27.3 6.4-47.9 14.3-61.7h43.3c8 13.8 13.7 34.3 14.4 61.7z"></path>
  <path id="colortool_svg__XMLID_34__11665" class="colortool_svg__st20" d="M312.3 408.5h-40c-6.6 0-12-5.4-12-12s5.4-12 12-12h40c6.6 0 12 5.4 12 12s-5.3 12-12 12z"></path>
  <ellipse id="colortool_svg__XMLID_142__11666" class="colortool_svg__st21" cx="266.3" cy="396.5" rx="6.1" ry="8"></ellipse>
  <path id="colortool_svg__XMLID_138__11667" class="colortool_svg__st22" d="M312.3 384.5h-24.2c6.6 0 12 5.4 12 12s-5.4 12-12 12h24.2c6.6 0 12-5.4 12-12s-5.3-12-12-12z"></path>
  <path id="colortool_svg__XMLID_8__11668" class="colortool_svg__st6" d="M312.3 408.5h-40c-6.6 0-12-5.4-12-12s5.4-12 12-12h40c6.6 0 12 5.4 12 12s-5.3 12-12 12z"></path>
  <path id="colortool_svg__XMLID_33__11669" class="colortool_svg__st12" d="M314.3 315.5c4.7 6.5 12.3 13 13.9 24.8.6 4.6.4 9.5-.7 14.4-3.7 15.3-21 31.5-41.4 29.5-20.9-2-37.7-22.4-35-45.8.7-6.7 3.5-25.8 18.7-42.9 9.3-10.5 19.8-16.3 27.3-19.4 3.1-1.3 6.5.9 6.6 4.3.5 17.5 5.6 28.3 10.6 35.1z"></path>
  <path id="colortool_svg__XMLID_10__11670" class="colortool_svg__st6" d="M314.3 315.5c4.7 6.5 12.3 13 13.9 24.8.6 4.6.4 9.5-.7 14.4-3.7 15.3-21 31.5-41.4 29.5-20.9-2-37.7-22.4-35-45.8.7-6.7 3.5-25.8 18.7-42.9 9.3-10.5 19.8-16.3 27.3-19.4 3.1-1.3 6.5.9 6.6 4.3.5 17.5 5.6 28.3 10.6 35.1z"></path>
  <path id="colortool_svg__XMLID_2__11671" d="M319.9 338.6v-.5c0-.2.1-.5.1-.7.1-.5.1-1.1.2-1.6 0-.2.1-.4.1-.6.5-2.7 1.2-10.9 2.3-13.4-1.8-.3-3.4 4.3-4.5 2.9-1.4-1.7-2.7-3.2-3.8-4.8-5-6.8-10.1-17.6-10.6-35.2-.1-3.4-3.5-5.6-6.6-4.3-7.5 3.1-18 8.9-27.3 19.4-7.7 8.6-16.5 12.5-19 24.4.4.1 9.1 7.3 9.1 12.8v15.1c0 6.8 5.4 12.7 12.2 12.8 7 .1 12.7-5.5 12.7-12.4v-26c0-3.8 2.9-7.1 6.7-7.2 3.9-.1 7.2 3 7.2 6.9v11.9c0 6.9 4.8 12.4 10.7 12.4 5.4 0 9.9-4.7 10.6-10.7-.2-.4-.1-.8-.1-1.2z" opacity=".76" fill="#301b19"></path>
  <path id="colortool_svg__XMLID_1__11672" class="colortool_svg__st6" d="M292.3 642.2c-16.2 0-29.9-13.4-30.5-30.5l-5.5-141.5h72l-5.5 141.5c-.6 17.1-14.3 30.5-30.5 30.5z"></path>
  <path id="colortool_svg__XMLID_82__11673" class="colortool_svg__st7" d="M420 635.1c-17.7 0-32-14.3-32-32v-156h64v156c0 17.7-14.3 32-32 32z"></path>
  <path id="colortool_svg__XMLID_92__11674" class="colortool_svg__st24" d="M390 615.3V452.7c6.6 0 12 5.4 12 12v138.7c0 6.6-5.4 11.9-12 11.9z"></path>
  <path id="colortool_svg__XMLID_109__11675" d="M437 447.1v148.2c0 17.7-14.3 32-32 32-2.3 0-4.5-.2-6.7-.7 5.7 5.3 13.3 8.5 21.7 8.5 17.7 0 32-14.3 32-32v-156h-15z" opacity=".32" fill="#026060"></path>
  <path id="colortool_svg__XMLID_9__11676" class="colortool_svg__st6" d="M420 635.1c-17.7 0-32-14.3-32-32v-156h64v156c0 17.7-14.3 32-32 32z"></path>
  <path id="colortool_svg__XMLID_29__11677" d="M436 377.1v-29.6h-32v29.6c0 8.8-7.2 16-16 16v54h64v-54c-8.8 0-16-7.2-16-16z" fill="#9bc7bc"></path>
  <path id="colortool_svg__XMLID_93__11678" class="colortool_svg__st21" d="M391 443.7h-.7v-47.2c6.3 0 11.3 5.1 11.3 11.3V433c.1 5.9-4.7 10.7-10.6 10.7z"></path>
  <path id="colortool_svg__XMLID_100__11679" d="M436 377.1v-29.6c-7.7 0-14 6.3-14 14v15.6c0 11.5 6.5 21.5 16 26.5v29.5c0 7.7 6.3 14 14 14v-54c-8.8 0-16-7.2-16-16z" opacity=".47" fill="#72a596"></path>
  <path id="colortool_svg__XMLID_83__11680" class="colortool_svg__st6" d="M436 377.1v-29.6h-32v30.3c0 8.5-6.9 15.3-15.3 15.3h-.7v54h64v-54c-8.8 0-16-7.2-16-16z"></path>
  <path id="colortool_svg__XMLID_86__11681" class="colortool_svg__st28" d="M408 302.9v44.7h24V314c-8.1-1.8-15.2-6.2-20.3-12.4-1.2-1.6-3.7-.7-3.7 1.3z"></path>
  <path id="colortool_svg__XMLID_30__11682" class="colortool_svg__st6" d="M408 303.7v43.8h24v-33.6c-7.8-1.7-14.7-6-19.8-11.8-1.4-1.7-4.2-.7-4.2 1.6z"></path>
  <path id="colortool_svg__XMLID_81__11683" class="colortool_svg__st29" d="M552.2 636.2h-36c-6.6 0-12-5.4-12-12v-15.5h60v15.5c0 6.6-5.4 12-12 12z"></path>
  <path id="colortool_svg__XMLID_94__11684" d="M555 618.8v4.7c0 2.9-2.4 5.3-5.3 5.3h-25.6c-4.1 0-7.5 3.3-7.5 7.5h35.5c6.6 0 12-5.4 12-12V610h-.4c-4.8 0-8.7 3.9-8.7 8.8z" fill="#d3112e"></path>
  <path id="colortool_svg__XMLID_69__11685" d="M511.1 630.8c-2.2 0-3.9-1.8-3.9-3.9v-15.3h3.9c2.2 0 3.9 1.8 3.9 3.9v11.4c0 2.1-1.8 3.9-3.9 3.9z" opacity=".51" fill="#ffa4ad"></path>
  <path id="colortool_svg__XMLID_25__11686" class="colortool_svg__st6" d="M552.2 636.2h-36c-6.6 0-12-5.4-12-12v-15.5h60v15.5c0 6.6-5.4 12-12 12z"></path>
  <path id="colortool_svg__XMLID_70__11687" d="M566.2 608.7h-20v-221c0-5.5 4.5-10 10-10s10 4.5 10 10v221z" fill="#48633b"></path>
  <path id="colortool_svg__XMLID_23__11688" class="colortool_svg__st6" d="M566.2 608.7h-20v-221c0-5.5 4.5-10 10-10s10 4.5 10 10v221z"></path>
  <path id="colortool_svg__XMLID_78__11689" class="colortool_svg__st28" d="M522.2 608.7h-20v-221c0-5.5 4.5-10 10-10s10 4.5 10 10v221z"></path>
  <path id="colortool_svg__XMLID_96__11690" d="M506.9 604.2c-2.3 0-4.2-1.9-4.2-4.2V386.5c0-2.3 1.9-4.2 4.2-4.2 2.3 0 4.2 1.9 4.2 4.2V600c0 2.3-1.9 4.2-4.2 4.2z" fill="#bfbc47"></path>
  <path id="colortool_svg__XMLID_32__11691" class="colortool_svg__st6" d="M522.2 608.7h-20v-221c0-5.5 4.5-10 10-10s10 4.5 10 10v221z"></path>
  <path id="colortool_svg__XMLID_77__11692" d="M546.2 608.7h-24v-219c0-6.6 5.4-12 12-12s12 5.4 12 12v219z" fill="#4d9358"></path>
  <path id="colortool_svg__XMLID_38__11693" class="colortool_svg__st6" d="M546.2 608.7h-24v-219c0-6.6 5.4-12 12-12s12 5.4 12 12v219z"></path>
  <path id="colortool_svg__XMLID_87__11694" class="colortool_svg__st7" d="M788.3 431.2H645.9c-10.7 0-19.3-8.7-19.3-19.3v-41.3c0-10.7 8.7-19.3 19.3-19.3h142.3c10.7 0 19.3 8.7 19.3 19.3v41.3c.1 10.6-8.6 19.3-19.2 19.3z"></path>
  <path id="colortool_svg__XMLID_185__11695" class="colortool_svg__st24" d="M634.8 416c-3.2 0-5.8-2.6-5.8-5.8v-38c0-3.2 2.6-5.8 5.8-5.8 3.2 0 5.8 2.6 5.8 5.8v38c.1 3.2-2.5 5.8-5.8 5.8z"></path>
  <path id="colortool_svg__XMLID_73__11696" class="colortool_svg__st35" d="M780.8 412.4H653.3c-3.4 0-6.2-2.8-6.2-6.2 0-3.4 2.8-6.2 6.2-6.2h127.5c3.4 0 6.2 2.8 6.2 6.2 0 3.4-2.8 6.2-6.2 6.2z"></path>
  <path id="colortool_svg__XMLID_113__11697" class="colortool_svg__st35" d="M783.9 394.3H650.3c-1.7 0-3.1-1.4-3.1-3.1 0-1.7 1.4-3.1 3.1-3.1H784c1.7 0 3.1 1.4 3.1 3.1-.1 1.8-1.5 3.1-3.2 3.1z"></path>
  <path id="colortool_svg__XMLID_153__11698" class="colortool_svg__st8" d="M788.3 351.2h-1.1c1.3 2.6 2.1 5.5 2.1 8.7V406c0 8-6.5 14.6-14.6 14.6H651.3c-5.9 0-10.7 4.8-10.7 10.7h147.6c10.7 0 19.3-8.7 19.3-19.3v-41.3c.1-10.9-8.6-19.5-19.2-19.5z"></path>
  <path id="colortool_svg__XMLID_104__11699" d="M795.6 364h-157c-2.9 0-5.2-2.3-5.2-5.2 0-2.9 2.3-5.2 5.2-5.2h157c2.9 0 5.2 2.3 5.2 5.2 0 2.9-2.3 5.2-5.2 5.2z" opacity=".15" fill="#92d3d1"></path>
  <path id="colortool_svg__XMLID_31__11700" class="colortool_svg__st6" d="M788.3 431.2H645.9c-10.7 0-19.3-8.7-19.3-19.3v-41.3c0-10.7 8.7-19.3 19.3-19.3h142.3c10.7 0 19.3 8.7 19.3 19.3v41.3c.1 10.6-8.6 19.3-19.2 19.3z"></path>
  <path id="colortool_svg__XMLID_43__11701" d="M715.2 630.3c-11.7 0-21.3-9.5-21.3-21.3v-68.4c0-11.7 9.5-21.3 21.3-21.3 11.7 0 21.3 9.5 21.3 21.3V609c-.1 11.8-9.6 21.3-21.3 21.3z" fill="#ab5647"></path>
  <path id="colortool_svg__XMLID_28__11702" class="colortool_svg__st38" d="M700.8 617.5c-3 0-5.4-2.4-5.4-5.4v-76.7c0-3 2.4-5.4 5.4-5.4 3 0 5.4 2.4 5.4 5.4v76.7c0 3-2.4 5.4-5.4 5.4z"></path>
  <path id="colortool_svg__XMLID_91__11703" class="colortool_svg__st39" d="M720.6 520.1c3 3.7 4.9 8.4 4.9 13.5V602c0 11.7-9.5 21.3-21.3 21.3-1.9 0-3.7-.3-5.4-.7 3.9 4.7 9.8 7.7 16.4 7.7 11.7 0 21.3-9.5 21.3-21.3v-68.4c-.1-9.8-6.8-18.1-15.9-20.5z"></path>
  <path id="colortool_svg__XMLID_88__11704" class="colortool_svg__st6" d="M715.2 630.3c-11.7 0-21.3-9.5-21.3-21.3v-68.4c0-11.7 9.5-21.3 21.3-21.3 11.7 0 21.3 9.5 21.3 21.3V609c-.1 11.8-9.6 21.3-21.3 21.3z"></path>
  <path id="colortool_svg__XMLID_89__11705" class="colortool_svg__st39" d="M727.3 524.4H703c-5 0-9.1-4.1-9.1-9.1s4.1-9.1 9.1-9.1h24.3c5 0 9.1 4.1 9.1 9.1s-4.1 9.1-9.1 9.1z"></path>
  <circle id="colortool_svg__XMLID_156__11706" class="colortool_svg__st38" cx="700.1" cy="515.2" r="6.2"></circle>
  <path id="colortool_svg__XMLID_166__11707" d="M727.3 506.1H713c5 0 9.1 4.1 9.1 9.1s-4.1 9.1-9.1 9.1h14.3c5 0 9.1-4.1 9.1-9.1s-4.1-9.1-9.1-9.1z" fill="#8c443e"></path>
  <path id="colortool_svg__XMLID_45__11708" class="colortool_svg__st6" d="M727.3 524.4H703c-5 0-9.1-4.1-9.1-9.1s4.1-9.1 9.1-9.1h24.3c5 0 9.1 4.1 9.1 9.1s-4.1 9.1-9.1 9.1z"></path>
  <path id="colortool_svg__XMLID_76__11709" class="colortool_svg__st6" d="M626.6 406.2h-1.2c-3.8 0-6.8-3.1-6.8-6.8V383c0-3.8 3.1-6.8 6.8-6.8h1.2v30z"></path>
  <path id="colortool_svg__XMLID_68__11710" class="colortool_svg__st12" d="M626.6 406.2h-1.2c-3.8 0-6.8-3.1-6.8-6.8V383c0-3.8 3.1-6.8 6.8-6.8h1.2v30z"></path>
  <path id="colortool_svg__XMLID_90__11711" class="colortool_svg__st6" d="M807.6 406.2h1.2c3.8 0 6.8-3.1 6.8-6.8V383c0-3.8-3.1-6.8-6.8-6.8h-1.2v30z"></path>
  <path id="colortool_svg__XMLID_74__11712" class="colortool_svg__st12" d="M807.6 406.2h1.2c3.8 0 6.8-3.1 6.8-6.8V383c0-3.8-3.1-6.8-6.8-6.8h-1.2v30z"></path>
  <path id="colortool_svg__XMLID_56__11713" d="M319.9 322.5c-2-2.5-4-4.8-5.6-7.1-5-6.8-10.1-17.5-10.6-35.2-.1-3.4-3.5-5.6-6.7-4.3-7.5 3.1-18 8.9-27.3 19.4-7.7 8.6-12.2 17.7-14.9 25.4 0 0 0 0 0 0" fill="none" stroke="#ec2731" stroke-width="6" stroke-linecap="round" stroke-linejoin="round" stroke-miterlimit="10"></path>
  <path id="colortool_svg__XMLID_71__11714" class="colortool_svg__st29" d="M319.9 334.1v-.5c0-.2.1-.5.1-.7.1-.5.1-1.1.2-1.6 0-.2.1-.4.1-.6.5-2.7 1.2-5.4 2.3-7.9-1.8-.3-3.4-1.2-4.5-2.6-1.4-1.7-2.7-3.2-3.8-4.8-5-6.8-10.1-17.6-10.6-35.2-.1-3.4-3.5-5.6-6.6-4.3-7.5 3.1-18 8.9-27.3 19.4-7.7 8.6-13.2 20.5-15.9 28.3.4.1 5.9 3.4 5.9 8.9v15.1c0 6.8 5.4 12.7 12.2 12.8 7 .1 12.7-5.5 12.7-12.4v-26c0-3.8 2.9-7.1 6.7-7.2 3.9-.1 7.2 3 7.2 6.9v11.9c0 6.9 4.8 12.4 10.7 12.4 5.4 0 9.9-4.7 10.6-10.7-.1-.3 0-.7 0-1.2z"></path>
  <path id="colortool_svg__XMLID_135__11715" class="colortool_svg__st42" d="M408 578.8v15.9"></path>
  <path id="colortool_svg__XMLID_118__11716" class="colortool_svg__st42" d="M408 462.4v102.8"></path>
  <path id="colortool_svg__XMLID_111__11717" class="colortool_svg__st5" d="M717.7 177.8l-10.8-16c-5.7-8.4-.4-20.2 9.8-20.9h2c10.1.7 15.4 12.4 9.8 20.9l-10.8 16z"></path>
  <path id="colortool_svg__XMLID_170__11718" class="colortool_svg__st7" d="M717.7 184.8l-10.8-16c-5.7-8.4-.4-20.2 9.8-20.9h2c10.1.7 15.4 12.4 9.8 20.9l-10.8 16z"></path>
  <path id="colortool_svg__XMLID_175__11719" class="colortool_svg__st6" d="M717.7 184.8l-10.8-16c-5.7-8.4-.4-20.2 9.8-20.9h2c10.1.7 15.4 12.4 9.8 20.9l-10.8 16z"></path>
  <path id="colortool_svg__XMLID_158__11720" class="colortool_svg__st42" d="M652.7 371h83.7"></path>
  <path id="colortool_svg__XMLID_163__11721" class="colortool_svg__st42" d="M753.5 371h12"></path>
  <circle id="colortool_svg__XMLID_165__11722" cx="715.2" cy="606.4" r="6.7" fill="#3e454f"></circle>
  <circle id="colortool_svg__XMLID_164__11723" class="colortool_svg__st6" cx="715.2" cy="606.4" r="6.7"></circle>
</svg>